PathFileType	4	(X/Y/Z)	14_coords_data.trc
DataRate	CameraRate	NumFrames	NumMarkers	Units	OrigDataRate	OrigDataStartFrame	OrigNumFrames
30.0	30.0	5	21	m	30.0	52	62
Frame#	Time	THUMB_TIP	THUMB_IP	THUMB_MCP	THUMB_CMC	INDEX_TIP	INDEX_DIP	INDEX_PIP	INDEX_MCP	MIDDLE_TIP	MIDDLE_DIP	MIDDLE_PIP	MIDDLE_MCP	RING_TIP	RING_DIP	RING_PIP	RING_MCP	PINKY_TIP	PINKY_DIP	PINKY_PIP	PINKY_MCP	WRIST
X1	Y1	Z1	X2	Y2	Z2	X3	Y3	Z3	X4	Y4	Z4	X5	Y5	Z5	X6	Y6	Z6	X7	Y7	Z7	X8	Y8	Z8	X9	Y9	Z9	X10	Y10	Z10	X11	Y11	Z11	X12	Y12	Z12	X13	Y13	Z13	X14	Y14	Z14	X15	Y15	Z15	X16	Y16	Z16	X17	Y17	Z17	X18	Y18	Z18	X19	Y19	Z19	X20	Y20	Z20	X21	Y21	Z21
51	1.7	0.01412399959564209	-0.027667600631713866	0.9480330200195313	0.0006268590092658991	-0.016703699111938478	0.9683759765625	-0.01731209945678711	-0.010531999588012696	0.9917570190429688	-0.02540730094909668	0.014526700019836426	1.012280029296875	0.02556800079345703	0.020695100784301756	0.8973250122070312	0.005798399925231934	0.02184320068359375	0.9049619750976563	-0.012373399734497071	0.021447200775146485	0.9180120239257813	-0.023332399368286134	0.018051599502563475	0.9532529907226562	0.03258190155029297	0.06062670135498047	0.8875390014648438	0.01415839958190918	0.05764250183105469	0.9017830200195313	-0.005507190227508545	0.05221070098876953	0.9201420288085937	-0.022924400329589843	0.04150609970092774	0.9538579711914063	0.03842720031738281	0.0726906967163086	0.9084500122070313	0.020113100051879884	0.07199610137939454	0.920530029296875	0.000285362988710403	0.06926309967041015	0.9361430053710937	-0.01817219924926758	0.05897470092773437	0.9634639892578125	0.037115699768066404	0.09043090057373047	0.9481339721679688	0.020458499908447267	0.08819300079345703	0.9547349853515625	0.005940010070800781	0.08361280059814453	0.9623880004882812	-0.011023099899291993	0.07205049896240234	0.978676025390625	-0.04615370178222656	0.03856620025634765	1.0288299560546874
52	1.7333333333333334	0.014563400268554688	-0.028309799194335936	0.9487080078125	0.001086509943008422	-0.01738479995727539	0.9688070068359375	-0.016906400680541993	-0.011184900283813477	0.9920780029296875	-0.025042400360107422	0.014030900001525879	1.0126599731445312	0.02556170082092285	0.019983299255371095	0.8975469970703125	0.0058039999008178715	0.02107119941711426	0.9050869750976562	-0.012296199798583984	0.020708599090576173	0.9183209838867188	-0.023223100662231447	0.01730080032348633	0.953322998046875	0.032845100402832034	0.059671798706054685	0.8877620239257813	0.014378399848937988	0.05670069885253906	0.9020440063476562	-0.005445040225982666	0.05137870025634766	0.9203369750976562	-0.02286079978942871	0.04083520126342773	0.9543280029296874	0.03855089950561524	0.07197720336914062	0.908552978515625	0.0202273006439209	0.07130799865722656	0.9206810302734375	0.000329780995845794	0.06864309692382813	0.9362440185546875	-0.01814080047607422	0.05835770034790039	0.96372802734375	0.037197898864746094	0.08972750091552735	0.9480850219726562	0.020572099685668945	0.08743049621582032	0.9546649780273437	0.005951469898223877	0.08300440216064453	0.9624639892578125	-0.01091129970550537	0.07153720092773437	0.9788289794921875	-0.045752899169921875	0.038051300048828125	1.0290799560546875
53	1.7666666666666666	0.014695500373840332	-0.028614099502563477	0.9489730224609375	0.001017910003662109	-0.01775950050354004	0.969010009765625	-0.016921300888061524	-0.011540800094604493	0.992323974609375	-0.024810699462890624	0.013657699584960938	1.0128699951171876	0.025635799407958983	0.019769699096679687	0.8978690185546875	0.00584807014465332	0.020874200820922853	0.9053480224609375	-0.012290900230407714	0.0205093994140625	0.9185650024414063	-0.023222000122070312	0.017203699111938475	0.9535170288085938	0.0336161003112793	0.05909709930419922	0.8885980224609376	0.014972900390625	0.056224601745605465	0.9025349731445312	-0.005143799781799316	0.05106859970092773	0.9206959838867188	-0.02290640068054199	0.04056629943847656	0.9546840209960937	0.03904679870605469	0.07138829803466797	0.9091820068359375	0.02063949966430664	0.07085749816894531	0.9211179809570312	0.0005641639828681941	0.0683687973022461	0.9363800048828125	-0.01814459991455078	0.05809939956665039	0.9639320068359375	0.03761880111694336	0.0889395980834961	0.9485579833984376	0.02088209915161133	0.0868666000366211	0.954968994140625	0.006152120113372803	0.08257759857177735	0.9627369995117188	-0.010793800354003907	0.071247802734375	0.979072998046875	-0.04558520126342774	0.03780419921875	1.029550048828125
54	1.8	0.013966099739074707	-0.02945000076293945	0.9492780151367187	0.00025412198901176403	-0.018530899047851563	0.9693189697265625	-0.017536800384521486	-0.0120024995803833	0.9925900268554687	-0.02503860092163086	0.013530099868774414	1.0131500244140625	0.025006000518798827	0.019389299392700194	0.897780029296875	0.005258289813995362	0.02063599967956543	0.9054030151367187	-0.012830100059509277	0.020422300338745116	0.9187100219726563	-0.023650199890136718	0.01723900032043457	0.953843017578125	0.033982700347900394	0.058345199584960934	0.8889829711914062	0.015258700370788573	0.055779998779296874	0.9029180297851562	-0.0049974298477172855	0.05080279922485351	0.9209329833984375	-0.023107500076293946	0.04059870147705078	0.954781005859375	0.04054299926757812	0.07016899871826172	0.9107979736328125	0.021953500747680665	0.07010379791259766	0.9221489868164062	0.001556900024414062	0.06800450134277344	0.9370430297851563	-0.017972799301147462	0.058044498443603515	0.9642020263671875	0.03915890121459961	0.08725340270996093	0.9499030151367187	0.022334999084472656	0.08573789978027344	0.9560009765625	0.00731236982345581	0.08192489624023437	0.9633709716796875	-0.010439299583435058	0.07108969879150391	0.9794940185546875	-0.04533660125732422	0.03799549865722656	1.0299200439453124
55	1.8333333333333333	0.013591799736022949	-0.029930099487304688	0.9499149780273437	-0.000269484996795654	-0.019114900588989257	0.9698920288085937	-0.01800090026855469	-0.012287400245666503	0.9929439697265625	-0.025044300079345702	0.01356980037689209	1.013219970703125	0.02453409957885742	0.019785699844360353	0.8978729858398438	0.004804870128631592	0.020970800399780273	0.9054749755859375	-0.013347599983215332	0.020726999282836913	0.9188480224609376	-0.024001300811767576	0.01745750045776367	0.9541669921875	0.03435260009765625	0.05844359970092773	0.8896929931640625	0.015376999855041503	0.055944198608398436	0.9033980102539062	-0.005045070171356201	0.05115140151977539	0.9212429809570313	-0.023331899642944336	0.0409276008605957	0.9550759887695313	0.04226139831542969	0.06955889892578125	0.9131719970703125	0.023254100799560546	0.06990699768066407	0.9235009765625	0.002264820098876953	0.06820050048828125	0.9378049926757812	-0.01829100036621094	0.058437698364257815	0.964385009765625	0.04056069946289063	0.08572830200195312	0.9521339721679688	0.023582300186157226	0.08488359832763671	0.957448974609375	0.008052029609680177	0.08168910217285157	0.9642130126953125	-0.010694399833679199	0.07154270172119141	0.9797540283203126	-0.0451781005859375	0.03821390151977539	1.0300899658203124
